<svg width="1155" height="700" viewBox="0 0 1155 700" fill="none" xmlns="http://www.w3.org/2000/svg">
  <rect width="800" height="600" transform="translate(178 50)" fill="white"/>
  <path d="M952.862 538.971H203V616.355H952.862V538.971Z" fill="#FFECCA"/>
  <path d="M921.292 379.918H847.632H829.422H669.99V96.5205H705.192V84H669.99H564.459H491.261H273.405H235.759V96.5205H273.405V380.329C273.405 384.229 276.567 387.391 280.467 387.391C283.706 387.391 286.401 385.098 288.016 382.291C290.54 377.904 294.597 375.059 299.172 375.059C302.848 375.059 306.19 376.896 308.671 379.894C311.829 383.711 318.541 387.391 323.495 387.391H330.29C335.243 387.391 341.956 383.711 345.114 379.894C347.594 376.896 350.936 375.059 354.612 375.059C358.289 375.059 361.631 376.897 364.111 379.894C367.269 383.711 373.982 387.391 378.935 387.391H385.731C390.684 387.391 397.397 383.711 400.555 379.894C403.036 376.896 406.378 375.059 410.054 375.059C413.73 375.059 417.072 376.896 419.553 379.894C422.711 383.711 429.423 387.391 434.377 387.391H441.172C446.126 387.391 452.838 383.711 455.996 379.894C458.477 376.896 461.819 375.059 465.495 375.059C470.07 375.059 474.127 377.904 476.651 382.291C478.266 385.098 480.961 387.391 484.199 387.391C488.1 387.391 491.261 384.229 491.261 380.329V96.5205H564.459V379.918H520.642C512.642 379.918 506.152 386.408 506.152 394.408C506.152 402.408 512.642 408.888 520.642 408.888H540.602V427.908H558.432V582.928H588.232V427.908H637.302V582.928H667.112V427.908H683.682V408.888H778.562V427.908H796.842V595.258H826.192V427.908H875.722V595.258H905.072V427.908H921.652V408.888C929.482 408.698 935.782 402.288 935.782 394.408C935.782 386.408 929.292 379.918 921.292 379.918ZM580.711 379.918C583.193 376.907 586.541 375.059 590.226 375.059C593.902 375.059 597.244 376.896 599.725 379.894C599.731 379.902 599.739 379.91 599.746 379.918H580.711V379.918ZM636.146 379.918C636.153 379.91 636.161 379.902 636.168 379.894C638.649 376.896 641.99 375.059 645.667 375.059C649.343 375.059 652.685 376.897 655.166 379.894C655.172 379.902 655.18 379.91 655.187 379.918H636.146Z" fill="#ffffff"/>
  <path fill-rule="evenodd" clip-rule="evenodd" d="M910.122 274.718V289.248H907.332L887.352 366.128H903.232C907.042 366.128 910.122 369.218 910.122 373.028C910.122 376.828 907.042 379.908 903.242 379.918H847.632C846.682 379.918 845.772 379.728 844.952 379.378C844.542 379.208 844.152 378.988 843.792 378.738C843.786 378.744 843.784 378.746 843.783 378.746C843.782 378.745 843.782 378.743 843.782 378.738C843.422 378.488 843.082 378.208 842.772 377.898C842.612 377.738 842.462 377.578 842.322 377.408C841.342 376.218 840.752 374.688 840.752 373.028C840.752 371.358 841.342 369.828 842.322 368.638C842.462 368.468 842.612 368.298 842.772 368.148C844.012 366.898 845.732 366.128 847.632 366.128H859.347V358.658H863.824V366.128H878.062L898.042 289.248H862.182V293.798H862.172H832.532V289.278H833.342V289.248H833.332V274.718H847.862H910.122ZM445.876 456.794H504.677C514.067 456.794 521.679 464.406 521.679 473.796C521.679 480.181 518.16 485.744 512.955 488.651V597.391H501.5H492.233V490.798H457.264V597.391H445.809H440.173H436.541H428.718H419.45V490.798H384.482V597.391H373.027H363.759V490.798H362.27H362.201H361.444C352.51 490.798 345.268 483.555 345.268 474.621C345.268 474.485 345.269 474.349 345.273 474.214C345.269 474.075 345.268 473.936 345.268 473.796C345.268 470.523 346.193 467.466 347.796 464.871L307.423 314.199C304.993 305.129 310.375 295.807 319.445 293.376C323.211 292.367 327.02 292.705 330.361 294.094H391.432C402.221 294.094 411.56 301.594 413.889 312.128L445.876 456.794Z" fill="#22a6b3"/>
  <path opacity="0.2" d="M877.712 381.098H788.462L837.282 293.798H858.462L874.412 366.128L877.452 379.918L877.712 381.098Z" fill="#FFFF8F"/>
  <path d="M732.502 316.27H693.127V375.145H732.502V316.27Z" fill="#559ED2"/>
  <path d="M732.503 315.233H726.141V372.148H732.503V315.233Z" fill="#8ED0FF"/>
  <path d="M769.965 372.147H640.907V379.92H769.965V372.147Z" fill="#559ED2"/>
  <path d="M640.037 188.886H805.933C815.524 188.886 823.3 196.662 823.3 206.253V298.609C823.3 308.201 815.524 315.976 805.933 315.976H640.037C630.445 315.976 622.67 308.201 622.67 298.609V206.253C622.67 196.662 630.445 188.886 640.037 188.886Z" fill="#8ED0FF"/>
  <path d="M621.654 188.593H794.288C803.879 188.593 811.655 196.369 811.655 205.96V298.903C811.655 308.495 803.879 316.27 794.288 316.27H621.654C612.062 316.27 604.287 308.495 604.287 298.903V205.96C604.287 196.369 612.062 188.593 621.654 188.593Z" fill="#559ED2"/>
  <path d="M626.995 194.716H788.548C798.139 194.716 805.915 202.492 805.915 212.084V293.367C805.915 302.959 798.139 310.734 788.548 310.734H626.995C617.403 310.734 609.628 302.959 609.628 293.367V212.084C609.628 202.492 617.403 194.716 626.995 194.716Z" fill="#E8F6FF"/>
  <path d="M788.042 200.529H628.226V310.734H788.042V200.529Z" fill="white"/>
  <path d="M725.864 231.208H768.547C771.025 231.208 773.034 233.217 773.034 235.696C773.034 238.174 771.025 240.183 768.547 240.183H725.864C723.386 240.183 721.377 238.174 721.377 235.696C721.377 233.217 723.386 231.208 725.864 231.208Z" fill="#E8F6FF"/>
  <path d="M725.864 246.114H768.547C771.025 246.114 773.034 248.123 773.034 250.602C773.034 253.08 771.025 255.089 768.547 255.089H725.864C723.386 255.089 721.377 253.08 721.377 250.602C721.377 248.123 723.386 246.114 725.864 246.114Z" fill="#E8F6FF"/>
  <path d="M730.843 271.244C733.321 271.244 735.33 269.235 735.33 266.756C735.33 264.278 733.321 262.269 730.843 262.269C728.365 262.269 726.355 264.278 726.355 266.756C726.355 269.235 728.365 271.244 730.843 271.244Z" fill="#E8F6FF"/>
  <path d="M747.206 271.244C749.684 271.244 751.693 269.235 751.693 266.756C751.693 264.278 749.684 262.269 747.206 262.269C744.727 262.269 742.718 264.278 742.718 266.756C742.718 269.235 744.727 271.244 747.206 271.244Z" fill="#E8F6FF"/>
  <path d="M763.568 271.244C766.046 271.244 768.055 269.235 768.055 266.756C768.055 264.278 766.046 262.269 763.568 262.269C761.089 262.269 759.08 264.278 759.08 266.756C759.08 269.235 761.089 271.244 763.568 271.244Z" fill="#E8F6FF"/>
  <path d="M644.152 206.723H771.241C773.72 206.723 775.729 208.732 775.729 211.211C775.729 213.689 773.72 215.698 771.241 215.698H644.152C641.674 215.698 639.665 213.689 639.665 211.211C639.665 208.732 641.674 206.723 644.152 206.723Z" fill="#E8F6FF"/>
  <path d="M637.509 233.99C637.509 230.153 640.62 227.043 644.456 227.043H707.043C710.88 227.043 713.99 230.153 713.99 233.99V310.733H637.509V233.99V233.99Z" fill="#E8F6FF"/>
  <path d="M729.883 278.424H727.591V280.813H729.883V278.424Z" fill="#E8F6FF"/>
  <path d="M737.27 278.424H734.978V280.813H737.27V278.424Z" fill="#E8F6FF"/>
  <path d="M744.658 278.424H742.366V280.813H744.658V278.424Z" fill="#E8F6FF"/>
  <path d="M752.045 278.424H749.753V280.813H752.045V278.424Z" fill="#E8F6FF"/>
  <path d="M759.432 278.424H757.14V280.813H759.432V278.424Z" fill="#E8F6FF"/>
  <path d="M766.82 278.424H764.528V280.813H766.82V278.424Z" fill="#E8F6FF"/>
  <path d="M729.883 284.507H727.591V286.896H729.883V284.507Z" fill="#E8F6FF"/>
  <path d="M737.27 284.507H734.978V286.896H737.27V284.507Z" fill="#E8F6FF"/>
  <path d="M744.658 284.507H742.366V286.896H744.658V284.507Z" fill="#E8F6FF"/>
  <path d="M752.045 284.507H749.753V286.896H752.045V284.507Z" fill="#E8F6FF"/>
  <path d="M759.432 284.507H757.14V286.896H759.432V284.507Z" fill="#E8F6FF"/>
  <path d="M766.82 284.507H764.528V286.896H766.82V284.507Z" fill="#E8F6FF"/>
  <path d="M729.883 290.509H727.591V292.898H729.883V290.509Z" fill="#E8F6FF"/>
  <path d="M737.27 290.509H734.978V292.898H737.27V290.509Z" fill="#E8F6FF"/>
  <path d="M744.658 290.509H742.366V292.898H744.658V290.509Z" fill="#E8F6FF"/>
  <path d="M752.045 290.509H749.753V292.898H752.045V290.509Z" fill="#E8F6FF"/>
  <path d="M759.432 290.509H757.14V292.898H759.432V290.509Z" fill="#E8F6FF"/>
  <path d="M766.82 290.509H764.528V292.898H766.82V290.509Z" fill="#E8F6FF"/>
  <path d="M769.964 372.147H760.702V379.92H769.964V372.147Z" fill="#8ED0FF"/>
  <path d="M658.354 372.147H528.089V379.92H658.354V372.147Z" fill="#559ED2"/>
  <path d="M658.353 372.147H628.702V379.92H658.353V372.147Z" fill="#8ED0FF"/>
  <path fill-rule="evenodd" clip-rule="evenodd" d="M520.639 379.92C512.639 379.92 506.154 386.405 506.154 394.405C506.154 402.405 512.639 408.89 520.639 408.89H540.6V427.905H558.427V582.932H571.554V427.905V413.23V408.89H778.563V427.905H796.842V595.255H809.969V413.23V408.845C817.429 408.257 823.3 402.017 823.3 394.405C823.3 386.405 816.815 379.92 808.815 379.92H520.639ZM888.848 427.905V595.255H875.722V427.905H888.848ZM650.433 427.905V582.932H637.306V427.905H650.433Z" fill="black" fill-opacity="0.18"/>
  <path fill-rule="evenodd" clip-rule="evenodd" d="M363.759 490.798H361.444C352.51 490.798 345.268 483.555 345.268 474.621C345.268 471.292 346.273 468.198 347.998 465.626L307.423 314.199C304.993 305.129 310.375 295.807 319.445 293.376C328.515 290.946 337.838 296.328 340.269 305.399L381.277 458.445H461.374C470.308 458.445 477.55 465.687 477.55 474.621C477.55 483.555 470.308 490.798 461.374 490.798H445.809V597.391H436.541V490.798H428.718V597.391H419.45V490.798H373.027V597.391H363.759V490.798V490.798ZM501.5 597.391V490.767H492.233V597.391H501.5ZM370.043 325.657L365.743 319.057L363.343 325.657L357.843 329.157L364.443 332.857L368.743 339.457L371.043 332.857L376.643 329.357L370.043 325.657ZM399.543 319.457L403.343 325.357L409.143 328.557L404.243 331.657L402.143 337.557L398.343 331.657L392.543 328.457L397.443 325.257L399.543 319.457ZM382.843 372.157L378.543 365.557L376.243 372.157L370.643 375.757L377.243 379.357L381.543 385.957L383.943 379.457L389.443 375.857L382.843 372.157ZM412.343 365.957L416.143 371.857L422.043 375.057L417.043 378.257L414.943 384.057L411.243 378.157L405.343 374.957L410.243 371.857L412.343 365.957ZM395.743 418.757L391.443 412.057L389.043 418.657L383.443 422.257L390.143 425.857L394.443 432.557L396.743 425.957L402.343 422.357L395.743 418.757ZM425.243 412.557L429.043 418.357L434.843 421.657L429.943 424.757L427.843 430.557L424.043 424.757L418.143 421.457L423.143 418.357L425.243 412.557Z" fill="black" fill-opacity="0.31"/>
  <path fill-rule="evenodd" clip-rule="evenodd" d="M862.172 289.238V293.798H832.532V293.798H832.522V289.238H833.332V274.718H847.862V289.238H862.172ZM832.532 289.278H833.342V289.278H832.532V289.278ZM883.322 366.258L903.382 289.198H898.082L878.062 366.128H863.824V358.658H859.347V366.128H847.632C845.732 366.128 844.012 366.898 842.772 368.148C842.612 368.298 842.462 368.468 842.322 368.638C841.332 369.828 840.742 371.358 840.742 373.028C840.742 374.688 841.332 376.218 842.322 377.408C842.462 377.578 842.612 377.738 842.772 377.898C843.082 378.218 843.412 378.498 843.782 378.738C843.782 378.743 843.782 378.745 843.783 378.746C843.784 378.746 843.786 378.744 843.792 378.738C844.152 378.988 844.542 379.208 844.952 379.378C845.772 379.728 846.682 379.918 847.632 379.918H881.982C885.792 379.918 888.872 376.828 888.872 373.028C888.872 369.678 886.482 366.878 883.322 366.258Z" fill="black" fill-opacity="0.28"/>
  <path d="M705.194 84H235.762V96.5205H705.194V84Z" fill="black" fill-opacity="0.18"/>
</svg>